z<svg width="26" height="26" viewBox="0 0 26 26" fill="none" xmlns="http://www.w3.org/2000/svg">
<g clip-path="url(#clip0_13_122)">
<path d="M13 5.6875C12.4376 5.6875 11.8878 5.52072 11.4201 5.20824C10.9524 4.89577 10.588 4.45163 10.3727 3.93201C10.1575 3.41238 10.1012 2.8406 10.2109 2.28896C10.3206 1.73733 10.5915 1.23062 10.9892 0.832916C11.3869 0.435211 11.8936 0.16437 12.4452 0.0546431C12.9968 -0.0550836 13.5686 0.00123217 14.0883 0.216469C14.6079 0.431706 15.052 0.796196 15.3645 1.26385C15.677 1.7315 15.8438 2.28131 15.8438 2.84375C15.8429 3.59771 15.5431 4.32056 15.0099 4.8537C14.4768 5.38683 13.754 5.68669 13 5.6875Z" fill="#000"/>
<path d="M21.9375 5.72811L21.9146 5.73421L21.8933 5.74081C21.8425 5.75503 21.7917 5.77026 21.741 5.786C20.7959 6.06327 16.2094 7.35616 12.9781 7.35616C9.97545 7.35616 5.80377 6.23897 4.46924 5.85964C4.33642 5.80828 4.20078 5.76454 4.06299 5.72862C3.09814 5.47472 2.43799 6.45479 2.43799 7.35058C2.43799 8.23772 3.23525 8.66022 4.04014 8.96339V8.97761L8.87553 10.4878C9.36963 10.6773 9.50166 10.8707 9.56615 11.0383C9.77588 11.5761 9.6083 12.641 9.54889 13.0127L9.25436 15.2978L7.61971 24.245C7.61463 24.2694 7.61006 24.2942 7.606 24.3196L7.59432 24.3841C7.4765 25.2042 8.07877 26 9.21932 26C10.2146 26 10.6539 25.3129 10.8443 24.378C11.0347 23.4432 12.2662 16.3764 12.9771 16.3764C13.6881 16.3764 15.1526 24.378 15.1526 24.378C15.343 25.3129 15.7823 26 16.7776 26C17.9212 26 18.5235 25.2007 18.4026 24.378C18.3922 24.3089 18.3793 24.2401 18.364 24.1719L16.707 15.2989L16.413 13.0137C16.2002 11.6827 16.3713 11.243 16.4292 11.1399C16.4308 11.1374 16.4321 11.1349 16.4333 11.1323C16.4881 11.0307 16.738 10.8032 17.321 10.5843L21.8547 8.99944C21.8826 8.99203 21.91 8.98321 21.937 8.97304C22.7495 8.66835 23.562 8.24686 23.562 7.35159C23.562 6.45632 22.9023 5.47472 21.9375 5.72811Z" fill="#000"/>
</g>
<defs>
<clipPath id="clip0_13_122">
<rect width="26" height="26" fill="white"/>
</clipPath>
</defs>
</svg>
