<svg width="26" height="26" viewBox="0 0 26 26" fill="none" xmlns="http://www.w3.org/2000/svg">
<path d="M13 11.8508L14.7494 10.1014C13.1054 8.19098 12.2022 5.75364 12.2043 3.23322C12.2043 2.97931 12.2139 2.72286 12.2317 2.4715C9.98103 2.63009 7.84103 3.50835 6.1278 4.97654L13 11.8508ZM15.9017 8.94915L19.8723 4.97654C18.1839 3.52928 16.0801 2.65457 13.8633 2.4781C13.8425 2.72693 13.8308 2.9788 13.8308 3.23322C13.8287 5.32255 14.5618 7.346 15.9017 8.94915ZM17.0508 10.0983C18.6538 11.4387 20.6773 12.1724 22.7668 12.1707C23.0207 12.1707 23.2746 12.159 23.5219 12.1382C23.3458 9.9209 22.471 7.81656 21.0235 6.12775L17.0508 10.0983ZM8.94921 15.9016C7.34631 14.5611 5.32281 13.8275 3.23327 13.8292C2.97869 13.8292 2.72698 13.8401 2.47815 13.8617C2.65431 16.079 3.52904 18.1834 4.97659 19.8722L8.94921 15.9016ZM13 14.1492L11.2506 15.8986C12.8947 17.809 13.7979 20.2463 13.7958 22.7667C13.7958 23.0206 13.7861 23.2771 13.7684 23.5284C16.0191 23.37 18.1591 22.4917 19.8723 21.0234L13 14.1492ZM22.7668 13.7957C20.2464 13.7978 17.809 12.8946 15.8986 11.2506L14.1492 13L21.0235 19.8722C22.4928 18.1594 23.3721 16.0193 23.5316 13.7683C23.2771 13.7861 23.0227 13.7957 22.7668 13.7957ZM11.8509 13L4.97659 6.12775C3.50721 7.84052 2.62786 9.98059 2.46851 12.2317C2.72241 12.2139 2.97632 12.2042 3.23022 12.2042C5.75065 12.2021 8.18799 13.1053 10.0984 14.7494L11.8509 13ZM6.1278 21.0234C7.81621 22.4707 9.91997 23.3454 12.1367 23.5219C12.1581 23.273 12.1689 23.0213 12.1692 22.7667C12.171 20.6772 11.4373 18.6537 10.0969 17.0508L6.1278 21.0234Z" fill="#000"/>
</svg>
