<svg width="26" height="26" viewBox="0 0 26 26" fill="none" xmlns="http://www.w3.org/2000/svg">
<path d="M21.9375 11.7152C21.4253 11.4904 20.8719 11.3745 20.3125 11.375H5.6875C5.12815 11.3745 4.57479 11.4901 4.0625 11.7147C3.33846 12.0314 2.72235 12.5521 2.28947 13.2132C1.85659 13.8743 1.62569 14.6473 1.625 15.4375V21.125C1.625 21.3405 1.7106 21.5472 1.86298 21.6995C2.01535 21.8519 2.22201 21.9375 2.4375 21.9375C2.65299 21.9375 2.85965 21.8519 3.01202 21.6995C3.1644 21.5472 3.25 21.3405 3.25 21.125V20.7188C3.25132 20.6114 3.29454 20.5088 3.37044 20.4329C3.44635 20.357 3.54892 20.3138 3.65625 20.3125H22.3438C22.4511 20.3138 22.5537 20.357 22.6296 20.4329C22.7055 20.5088 22.7487 20.6114 22.75 20.7188V21.125C22.75 21.3405 22.8356 21.5472 22.988 21.6995C23.1403 21.8519 23.347 21.9375 23.5625 21.9375C23.778 21.9375 23.9847 21.8519 24.137 21.6995C24.2894 21.5472 24.375 21.3405 24.375 21.125V15.4375C24.3742 14.6473 24.1433 13.8745 23.7104 13.2135C23.2775 12.5525 22.6615 12.0318 21.9375 11.7152ZM19.0938 4.0625H6.90625C6.15204 4.0625 5.42872 4.36211 4.89542 4.89542C4.36211 5.42872 4.0625 6.15204 4.0625 6.90625V10.5625C4.06252 10.594 4.06986 10.625 4.08393 10.6532C4.09801 10.6813 4.11843 10.7058 4.1436 10.7247C4.16876 10.7436 4.19798 10.7565 4.22894 10.7621C4.25989 10.7678 4.29175 10.7662 4.32199 10.7575C4.76555 10.6278 5.22536 10.5621 5.6875 10.5625H5.9023C5.95244 10.5628 6.00093 10.5446 6.03842 10.5113C6.07592 10.478 6.09979 10.432 6.10543 10.3822C6.14975 9.98521 6.33875 9.61844 6.63635 9.35194C6.93394 9.08544 7.31927 8.93791 7.71875 8.9375H10.5625C10.9622 8.93753 11.3479 9.0849 11.6459 9.35143C11.9438 9.61796 12.133 9.98495 12.1773 10.3822C12.183 10.432 12.2068 10.478 12.2443 10.5113C12.2818 10.5446 12.3303 10.5628 12.3805 10.5625H13.6226C13.6727 10.5628 13.7212 10.5446 13.7587 10.5113C13.7962 10.478 13.8201 10.432 13.8257 10.3822C13.87 9.98547 14.0588 9.61891 14.3561 9.35245C14.6533 9.08599 15.0383 8.93828 15.4375 8.9375H18.2812C18.681 8.93753 19.0667 9.0849 19.3646 9.35143C19.6625 9.61796 19.8517 9.98495 19.8961 10.3822C19.9017 10.432 19.9256 10.478 19.9631 10.5113C20.0006 10.5446 20.0491 10.5628 20.0992 10.5625H20.3125C20.7747 10.5623 21.2345 10.6281 21.678 10.758C21.7083 10.7668 21.7402 10.7683 21.7712 10.7626C21.8022 10.7569 21.8314 10.7441 21.8566 10.7251C21.8818 10.7061 21.9022 10.6816 21.9162 10.6533C21.9303 10.6251 21.9376 10.594 21.9375 10.5625V6.90625C21.9375 6.15204 21.6379 5.42872 21.1046 4.89542C20.5713 4.36211 19.848 4.0625 19.0938 4.0625Z" fill="#000"/>
</svg>
