<svg width="26" height="26" viewBox="0 0 26 26" fill="none" xmlns="http://www.w3.org/2000/svg">
<path d="M19.7031 22.75C18.7791 22.75 17.8759 22.476 17.1076 21.9626C16.3393 21.4493 15.7405 20.7196 15.3869 19.866C15.0333 19.0123 14.9408 18.0729 15.121 17.1667C15.3013 16.2604 15.7462 15.428 16.3996 14.7746C17.053 14.1212 17.8854 13.6763 18.7917 13.496C19.6979 13.3157 20.6373 13.4083 21.491 13.7619C22.3447 14.1155 23.0743 14.7143 23.5876 15.4826C24.101 16.2508 24.375 17.1541 24.375 18.0781C24.3737 19.3168 23.881 20.5043 23.0052 21.3801C22.1293 22.256 20.9418 22.7486 19.7031 22.75ZM19.7031 15.0312C19.1005 15.0312 18.5114 15.2099 18.0104 15.5447C17.5093 15.8795 17.1188 16.3554 16.8882 16.9121C16.6576 17.4689 16.5972 18.0815 16.7148 18.6725C16.8324 19.2636 17.1225 19.8065 17.5487 20.2326C17.9748 20.6587 18.5177 20.9489 19.1087 21.0664C19.6997 21.184 20.3124 21.1237 20.8691 20.8931C21.4259 20.6624 21.9017 20.2719 22.2365 19.7709C22.5713 19.2698 22.75 18.6807 22.75 18.0781C22.7491 17.2703 22.4277 16.4959 21.8566 15.9247C21.2854 15.3535 20.5109 15.0322 19.7031 15.0312ZM6.29688 22.75C5.37287 22.75 4.46961 22.476 3.70132 21.9626C2.93304 21.4493 2.33423 20.7196 1.98063 19.866C1.62702 19.0123 1.53451 18.0729 1.71477 17.1667C1.89504 16.2604 2.33999 15.428 2.99336 14.7746C3.64674 14.1212 4.47918 13.6763 5.38544 13.496C6.29169 13.3157 7.23105 13.4083 8.08473 13.7619C8.9384 14.1155 9.66805 14.7143 10.1814 15.4826C10.6948 16.2508 10.9688 17.1541 10.9688 18.0781C10.9674 19.3168 10.4748 20.5043 9.59891 21.3801C8.72305 22.256 7.53552 22.7486 6.29688 22.75ZM6.29688 15.0312C5.69426 15.0312 5.10518 15.2099 4.60412 15.5447C4.10307 15.8795 3.71254 16.3554 3.48193 16.9121C3.25132 17.4689 3.19098 18.0815 3.30855 18.6725C3.42611 19.2636 3.7163 19.8065 4.14241 20.2326C4.56852 20.6587 5.11143 20.9489 5.70246 21.0664C6.2935 21.184 6.90612 21.1237 7.46287 20.8931C8.01961 20.6624 8.49547 20.2719 8.83026 19.7709C9.16506 19.2698 9.34375 18.6807 9.34375 18.0781C9.34281 17.2703 9.0215 16.4959 8.4503 15.9247C7.87911 15.3535 7.10467 15.0322 6.29688 15.0312ZM16.25 6.49999C16.464 6.50073 16.6761 6.45904 16.8739 6.37732C17.0717 6.2956 17.2514 6.17548 17.4025 6.0239C17.5536 5.87231 17.6732 5.69228 17.7543 5.49421C17.8354 5.29613 17.8764 5.08394 17.875 4.86991C17.8774 4.65695 17.8373 4.44566 17.757 4.24838C17.6768 4.0511 17.558 3.87181 17.4076 3.72098C17.2573 3.57015 17.0783 3.45081 16.8813 3.36994C16.6843 3.28907 16.4731 3.24829 16.2602 3.24999C16.0468 3.24932 15.8353 3.29069 15.6379 3.37174C15.4405 3.45279 15.261 3.57193 15.1096 3.72235C14.9583 3.87277 14.838 4.05154 14.7557 4.24844C14.6734 4.44534 14.6307 4.65651 14.6301 4.86991C14.6294 5.08331 14.6708 5.29475 14.7518 5.49216C14.8329 5.68957 14.952 5.86908 15.1024 6.02045C15.2529 6.17181 15.4316 6.29207 15.6285 6.37435C15.8254 6.45663 16.0366 6.49932 16.25 6.49999Z" fill="#000"/>
<path d="M18.6646 9.74999H16.4425C16.406 9.75 16.3702 9.7402 16.3389 9.72162C16.3075 9.70303 16.2817 9.67635 16.2642 9.64437L14.6524 6.69042C14.5389 6.4709 14.3752 6.28121 14.1747 6.13669C13.9742 5.99217 13.7425 5.8969 13.4983 5.85858C13.2541 5.82025 13.0044 5.83996 12.7692 5.91611C12.5341 5.99225 12.3202 6.12269 12.1448 6.29687L8.59727 9.87187C8.29923 10.1761 8.13006 10.5835 8.125 11.0094C8.125 11.893 8.76484 12.2078 9.06445 12.3855C10.5117 13.2194 11.5309 13.8293 12.09 14.168C12.1197 14.1861 12.1443 14.2115 12.1614 14.2418C12.1784 14.2721 12.1874 14.3063 12.1875 14.3411V17.8511C12.1875 18.2884 12.5237 18.6636 12.9609 18.6855C13.0707 18.6908 13.1804 18.6737 13.2834 18.6354C13.3864 18.5971 13.4805 18.5382 13.5601 18.4625C13.6397 18.3867 13.7032 18.2956 13.7465 18.1946C13.7899 18.0936 13.8124 17.9849 13.8125 17.875V13.5078C13.8126 13.3788 13.7819 13.2517 13.7231 13.1369C13.6643 13.0221 13.579 12.9229 13.4743 12.8477L11.5954 11.4964C11.5718 11.4795 11.5521 11.4578 11.5376 11.4326C11.5231 11.4075 11.5142 11.3796 11.5114 11.3507C11.5086 11.3218 11.512 11.2927 11.5214 11.2653C11.5309 11.2379 11.546 11.2128 11.5659 11.1917L13.6988 8.91718C13.7206 8.89378 13.7477 8.87588 13.7778 8.86495C13.8079 8.85401 13.8402 8.85035 13.872 8.85427C13.9038 8.85818 13.9342 8.86955 13.9607 8.88746C13.9873 8.90536 14.0092 8.9293 14.0248 8.9573L15.1328 10.9571C15.2032 11.0838 15.3063 11.1894 15.4313 11.2629C15.5563 11.3364 15.6987 11.3751 15.8438 11.375H18.6875C18.7976 11.3751 18.9065 11.3529 19.0077 11.3096C19.1089 11.2664 19.2003 11.203 19.2763 11.1234C19.3523 11.0437 19.4113 10.9495 19.4497 10.8463C19.4882 10.7432 19.5053 10.6333 19.5 10.5234C19.4787 10.0862 19.1019 9.74999 18.6646 9.74999Z" fill="#000"/>
</svg>
