<svg width="26" height="26" viewBox="0 0 26 26" fill="none" xmlns="http://www.w3.org/2000/svg">
<path d="M22.3945 17.0727L22.3915 17.0701C21.8872 16.6039 21.2347 16.4943 20.7584 16.414L20.7233 16.4079C20.2638 16.3323 20.1911 16.281 19.9829 16.0946C19.859 15.9844 19.7113 15.8077 19.7113 15.5898C19.7113 15.372 19.859 15.1953 19.9824 15.0851L21.5201 13.7206C22.8363 12.5572 23.5615 10.9957 23.5615 9.32344C23.5615 7.65121 22.8379 6.08969 21.5201 4.92578C19.6975 3.3216 17.2037 2.4375 14.4935 2.4375C11.3608 2.4375 8.22656 3.62426 5.89062 5.69309C3.66285 7.66188 2.4375 10.2995 2.4375 13.1193C2.4375 15.9392 3.66437 18.5768 5.89062 20.5451C6.99512 21.5221 8.30223 22.2808 9.77641 22.8008C11.1943 23.2981 12.6852 23.5556 14.1878 23.5625H14.2797C17.3773 23.5625 20.3272 22.5179 22.3737 20.6984C22.8663 20.2638 23.143 19.6407 23.1527 18.9434C23.1634 18.2239 22.88 17.5241 22.3945 17.0727ZM5.6875 10.5625C5.6875 10.2411 5.7828 9.92693 5.96136 9.6597C6.13992 9.39247 6.39371 9.18419 6.69064 9.0612C6.98757 8.9382 7.3143 8.90602 7.62952 8.96872C7.94474 9.03142 8.23429 9.18619 8.46155 9.41345C8.68881 9.64071 8.84358 9.93026 8.90628 10.2455C8.96898 10.5607 8.9368 10.8874 8.8138 11.1844C8.69081 11.4813 8.48253 11.7351 8.2153 11.9136C7.94807 12.0922 7.63389 12.1875 7.3125 12.1875C6.88152 12.1875 6.4682 12.0163 6.16345 11.7115C5.8587 11.4068 5.6875 10.9935 5.6875 10.5625ZM7.71875 17.418C7.39736 17.418 7.08318 17.3227 6.81595 17.1441C6.54872 16.9655 6.34044 16.7118 6.21745 16.4148C6.09445 16.1179 6.06227 15.7912 6.12497 15.4759C6.18767 15.1607 6.34244 14.8712 6.5697 14.6439C6.79696 14.4167 7.08651 14.2619 7.40173 14.1992C7.71695 14.1365 8.04368 14.1687 8.34061 14.2917C8.63754 14.4147 8.89133 14.6229 9.06989 14.8902C9.24845 15.1574 9.34375 15.4716 9.34375 15.793C9.34375 16.2239 9.17254 16.6373 8.8678 16.942C8.56305 17.2468 8.14973 17.418 7.71875 17.418ZM9.75 7.3125C9.75 6.99111 9.8453 6.67693 10.0239 6.4097C10.2024 6.14247 10.4562 5.93419 10.7531 5.8112C11.0501 5.6882 11.3768 5.65602 11.692 5.71872C12.0072 5.78142 12.2968 5.93619 12.524 6.16345C12.7513 6.39071 12.9061 6.68026 12.9688 6.99548C13.0315 7.3107 12.9993 7.63743 12.8763 7.93436C12.7533 8.23129 12.545 8.48508 12.2778 8.66364C12.0106 8.8422 11.6964 8.9375 11.375 8.9375C10.944 8.9375 10.5307 8.76629 10.226 8.46155C9.92121 8.1568 9.75 7.74348 9.75 7.3125ZM13 21.0742C12.5179 21.0742 12.0466 20.9313 11.6458 20.6634C11.245 20.3956 10.9325 20.0149 10.748 19.5695C10.5636 19.1241 10.5153 18.634 10.6093 18.1612C10.7034 17.6884 10.9355 17.254 11.2764 16.9131C11.6173 16.5723 12.0516 16.3401 12.5245 16.2461C12.9973 16.152 13.4874 16.2003 13.9328 16.3848C14.3782 16.5693 14.7589 16.8817 15.0267 17.2825C15.2945 17.6834 15.4375 18.1546 15.4375 18.6367C15.4375 19.2832 15.1807 19.9032 14.7236 20.3603C14.2665 20.8174 13.6465 21.0742 13 21.0742ZM16.6562 8.9375C16.3349 8.9375 16.0207 8.8422 15.7534 8.66364C15.4862 8.48508 15.2779 8.23129 15.1549 7.93436C15.032 7.63743 14.9998 7.3107 15.0625 6.99548C15.1252 6.68026 15.2799 6.39071 15.5072 6.16345C15.7345 5.93619 16.024 5.78142 16.3392 5.71872C16.6544 5.65602 16.9812 5.6882 17.2781 5.8112C17.575 5.93419 17.8288 6.14247 18.0074 6.4097C18.1859 6.67693 18.2812 6.99111 18.2812 7.3125C18.2812 7.74348 18.11 8.1568 17.8053 8.46155C17.5006 8.76629 17.0872 8.9375 16.6562 8.9375Z" fill="#000"/>
</svg>
