<svg width="26" height="27" viewBox="0 0 26 27" fill="none" xmlns="http://www.w3.org/2000/svg">
<path d="M23.3563 2.81068C23.2821 2.72915 23.1921 2.66351 23.0918 2.61772C22.9915 2.57194 22.883 2.54696 22.7728 2.5443C22.6626 2.54165 22.553 2.56136 22.4506 2.60226C22.3482 2.64316 22.2552 2.70438 22.1771 2.78225L21.549 3.40736C21.4728 3.48354 21.4301 3.58683 21.4301 3.69453C21.4301 3.80223 21.4728 3.90552 21.549 3.9817L22.1248 4.55654C22.1626 4.59447 22.2074 4.62456 22.2569 4.6451C22.3063 4.66563 22.3592 4.6762 22.4128 4.6762C22.4663 4.6762 22.5192 4.66563 22.5687 4.6451C22.6181 4.62456 22.6629 4.59447 22.7007 4.55654L23.3131 3.94717C23.6229 3.63791 23.6518 3.13416 23.3563 2.81068ZM20.2789 4.67689L11.1119 13.8277C11.0563 13.883 11.0159 13.9518 10.9946 14.0272L10.5706 15.2902C10.5604 15.3244 10.5597 15.3608 10.5685 15.3955C10.5773 15.4301 10.5953 15.4617 10.6205 15.487C10.6458 15.5123 10.6774 15.5303 10.7121 15.5391C10.7467 15.5479 10.7831 15.5471 10.8174 15.537L12.0793 15.1129C12.1548 15.0916 12.2235 15.0512 12.2788 14.9956L21.4296 5.8276C21.5143 5.74203 21.5618 5.62652 21.5618 5.50615C21.5618 5.38578 21.5143 5.27027 21.4296 5.18471L20.9244 4.67689C20.8387 4.59146 20.7226 4.54349 20.6016 4.54349C20.4807 4.54349 20.3646 4.59146 20.2789 4.67689Z" fill="#000"/>
<path d="M19.6188 9.94086L13.4291 16.1428C13.1899 16.3826 12.8958 16.5605 12.5724 16.6613L11.2572 17.1015C10.9451 17.1897 10.6151 17.193 10.3012 17.1112C9.98736 17.0293 9.701 16.8653 9.47166 16.6359C9.24231 16.4066 9.07827 16.1202 8.99642 15.8064C8.91458 15.4925 8.91791 15.1625 9.00605 14.8504L9.44633 13.5352C9.54674 13.2118 9.72434 12.9178 9.96379 12.6785L16.1657 6.48774C16.2226 6.43095 16.2613 6.35858 16.277 6.27979C16.2927 6.20099 16.2847 6.11929 16.254 6.04504C16.2233 5.97079 16.1713 5.90732 16.1045 5.86264C16.0377 5.81797 15.9591 5.7941 15.8788 5.79407H5.28125C4.52704 5.79407 3.80372 6.09368 3.27042 6.62698C2.73711 7.16029 2.4375 7.88361 2.4375 8.63782V20.8253C2.4375 21.5795 2.73711 22.3028 3.27042 22.8362C3.80372 23.3695 4.52704 23.6691 5.28125 23.6691H17.4688C18.223 23.6691 18.9463 23.3695 19.4796 22.8362C20.0129 22.3028 20.3125 21.5795 20.3125 20.8253V10.2278C20.3125 10.1474 20.2886 10.0689 20.2439 10.0021C20.1993 9.93531 20.1358 9.88327 20.0615 9.85256C19.9873 9.82185 19.9056 9.81385 19.8268 9.82957C19.748 9.84528 19.6756 9.88402 19.6188 9.94086Z" fill="#000"/>
</svg>
