<svg width="26" height="26" viewBox="0 0 26 26" fill="none" xmlns="http://www.w3.org/2000/svg">
<path d="M21.0433 4.95674C19.9889 3.89194 18.7345 3.04596 17.3522 2.4674C15.9699 1.88884 14.4869 1.58911 12.9884 1.58542C11.49 1.58173 10.0055 1.87416 8.62036 2.44591C7.23522 3.01766 5.97671 3.85745 4.91711 4.91705C3.85751 5.97665 3.01772 7.23516 2.44597 8.6203C1.87422 10.0054 1.5818 11.4899 1.58548 12.9884C1.58917 14.4869 1.8889 15.9699 2.46746 17.3522C3.04602 18.7345 3.892 19.9889 4.9568 21.0432C6.01117 22.108 7.26554 22.954 8.64784 23.5326C10.0301 24.1111 11.5131 24.4109 13.0116 24.4145C14.5101 24.4182 15.9946 24.1258 17.3797 23.5541C18.7649 22.9823 20.0234 22.1425 21.083 21.0829C22.1426 20.0233 22.9824 18.7648 23.5541 17.3797C24.1259 15.9945 24.4183 14.5101 24.4146 13.0116C24.4109 11.5131 24.1112 10.0301 23.5326 8.64778C22.9541 7.26548 22.1081 6.01111 21.0433 4.95674ZM9.34379 10.5625C9.58484 10.5625 9.82047 10.634 10.0209 10.7679C10.2213 10.9018 10.3775 11.0921 10.4698 11.3148C10.562 11.5375 10.5862 11.7826 10.5391 12.019C10.4921 12.2554 10.376 12.4726 10.2056 12.643C10.0351 12.8135 9.81797 12.9295 9.58156 12.9766C9.34514 13.0236 9.10009 12.9995 8.8774 12.9072C8.6547 12.815 8.46436 12.6588 8.33044 12.4583C8.19652 12.2579 8.12504 12.0223 8.12504 11.7812C8.12464 11.6211 8.15589 11.4624 8.217 11.3144C8.2781 11.1663 8.36786 11.0318 8.48111 10.9185C8.59436 10.8053 8.72887 10.7155 8.87692 10.6544C9.02497 10.5933 9.18363 10.5621 9.34379 10.5625ZM17.8583 15.9539C17.2489 18.0004 15.3091 19.5 13.0026 19.5C10.6961 19.5 8.75625 18.0004 8.1418 15.9539C8.12462 15.893 8.12192 15.8289 8.13391 15.7667C8.14591 15.7045 8.17228 15.646 8.21091 15.5958C8.24953 15.5457 8.29936 15.5052 8.35639 15.4777C8.41343 15.4502 8.47611 15.4365 8.53942 15.4375H17.4612C17.5244 15.4365 17.5871 15.4504 17.644 15.4779C17.701 15.5054 17.7508 15.5459 17.7893 15.5961C17.8279 15.6462 17.8542 15.7047 17.8662 15.7668C17.8782 15.829 17.8755 15.893 17.8583 15.9539ZM16.6563 13C16.4152 13 16.1796 12.9285 15.9792 12.7946C15.7788 12.6607 15.6226 12.4703 15.5303 12.2476C15.4381 12.0249 15.4139 11.7799 15.461 11.5435C15.508 11.307 15.6241 11.0899 15.7945 10.9194C15.965 10.749 16.1821 10.6329 16.4185 10.5859C16.6549 10.5389 16.9 10.563 17.1227 10.6553C17.3454 10.7475 17.5357 10.9037 17.6696 11.1041C17.8036 11.3046 17.875 11.5402 17.875 11.7812C17.8754 11.9414 17.8442 12.1001 17.7831 12.2481C17.722 12.3961 17.6322 12.5307 17.519 12.6439C17.4057 12.7572 17.2712 12.8469 17.1232 12.908C16.9751 12.9691 16.8165 13.0004 16.6563 13Z" fill="#000"/>
</svg>
