<svg width="26" height="27" viewBox="0 0 26 27" fill="none" xmlns="http://www.w3.org/2000/svg">
<path d="M13 22.8566C12.6738 22.8562 12.3553 22.7576 12.0859 22.5737C8.09499 19.8645 6.36691 18.007 5.41374 16.8456C3.38249 14.37 2.41003 11.8284 2.43745 9.07606C2.46945 5.92204 4.99988 3.35657 8.07823 3.35657C10.3167 3.35657 11.867 4.61747 12.7699 5.66762C12.7985 5.70055 12.8339 5.72696 12.8735 5.74506C12.9132 5.76315 12.9563 5.77252 13 5.77252C13.0436 5.77252 13.0867 5.76315 13.1264 5.74506C13.1661 5.72696 13.2014 5.70055 13.23 5.66762C14.1329 4.61645 15.6832 3.35657 17.9217 3.35657C21 3.35657 23.5305 5.92204 23.5625 9.07657C23.5899 11.8294 22.6164 14.371 20.5862 16.8461C19.633 18.0075 17.9049 19.865 13.914 22.5742C13.6446 22.7579 13.3261 22.8563 13 22.8566Z" fill="#000"/>
</svg>
