<svg width="26" height="27" viewBox="0 0 26 27" fill="none" xmlns="http://www.w3.org/2000/svg">
<path d="M13.2823 5.24971C13.2067 5.17739 13.1061 5.13702 13.0015 5.13702C12.8968 5.13702 12.7963 5.17739 12.7207 5.24971L3.37183 14.1806C3.33212 14.2186 3.30054 14.2642 3.27898 14.3148C3.25742 14.3653 3.24633 14.4197 3.2464 14.4746L3.24487 22.8566C3.24487 23.2876 3.41608 23.7009 3.72082 24.0056C4.02557 24.3104 4.4389 24.4816 4.86987 24.4816H9.74995C9.96544 24.4816 10.1721 24.396 10.3245 24.2436C10.4768 24.0912 10.5625 23.8846 10.5625 23.6691V16.7628C10.5625 16.6551 10.6053 16.5518 10.6814 16.4756C10.7576 16.3994 10.861 16.3566 10.9687 16.3566H15.0312C15.1389 16.3566 15.2423 16.3994 15.3185 16.4756C15.3947 16.5518 15.4375 16.6551 15.4375 16.7628V23.6691C15.4375 23.8846 15.5231 24.0912 15.6754 24.2436C15.8278 24.396 16.0345 24.4816 16.25 24.4816H21.128C21.559 24.4816 21.9723 24.3104 22.277 24.0056C22.5818 23.7009 22.753 23.2876 22.753 22.8566V14.4746C22.7531 14.4197 22.742 14.3653 22.7204 14.3148C22.6989 14.2642 22.6673 14.2186 22.6276 14.1806L13.2823 5.24971Z" fill="#000"/>
<path d="M24.929 12.5048L21.1306 8.8709V3.35657C21.1306 3.14108 21.045 2.93442 20.8926 2.78204C20.7403 2.62967 20.5336 2.54407 20.3181 2.54407H17.8806C17.6651 2.54407 17.4585 2.62967 17.3061 2.78204C17.1537 2.93442 17.0681 3.14108 17.0681 3.35657V4.98157L14.1269 2.1693C13.8516 1.89102 13.4423 1.73157 13 1.73157C12.5592 1.73157 12.151 1.89102 11.8757 2.16981L1.07455 12.5038C0.758691 12.8085 0.719082 13.3097 1.0065 13.6398C1.07868 13.7231 1.16705 13.7908 1.26625 13.8389C1.36544 13.887 1.47338 13.9144 1.5835 13.9194C1.69362 13.9245 1.80361 13.907 1.90678 13.8682C2.00994 13.8294 2.10413 13.77 2.18361 13.6936L12.7207 3.62469C12.7963 3.55237 12.8969 3.51201 13.0015 3.51201C13.1062 3.51201 13.2068 3.55237 13.2824 3.62469L23.8205 13.6936C23.9757 13.8425 24.1836 13.9237 24.3987 13.9195C24.6137 13.9153 24.8183 13.8261 24.9676 13.6713C25.2794 13.3483 25.2535 12.8151 24.929 12.5048Z" fill="#000"/>
</svg>
