<svg width="26" height="26" viewBox="0 0 26 26" fill="none" xmlns="http://www.w3.org/2000/svg">
<path d="M13.3711 23.39C10.5171 23.39 7.77993 22.2563 5.76183 20.2382C3.74374 18.2201 2.60999 15.4829 2.60999 12.6289C2.60999 8.26883 5.11472 4.35958 8.99289 2.67167C9.12957 2.6121 9.28102 2.59508 9.42751 2.62283C9.574 2.65058 9.70874 2.72181 9.81417 2.82723C9.9196 2.93266 9.99083 3.0674 10.0186 3.21389C10.0463 3.36038 10.0293 3.51184 9.96973 3.64852C9.52445 4.67082 9.28928 5.98024 9.28928 7.43391C9.28928 12.5491 13.4509 16.7107 18.5661 16.7107C20.0198 16.7107 21.3292 16.4755 22.3515 16.0303C22.4882 15.9707 22.6396 15.9537 22.7861 15.9814C22.9326 16.0092 23.0673 16.0804 23.1728 16.1858C23.2782 16.2912 23.3494 16.426 23.3772 16.5725C23.4049 16.719 23.3879 16.8704 23.3283 17.0071C21.6404 20.8853 17.7312 23.39 13.3711 23.39Z" fill="#000"/>
</svg>
