<svg width="26" height="26" viewBox="0 0 26 26" fill="none" xmlns="http://www.w3.org/2000/svg">
<path fill-rule="evenodd" clip-rule="evenodd" d="M12.21 6.78033C12.4195 6.98984 12.7037 7.10754 13 7.10754C13.2963 7.10754 13.5805 6.98984 13.79 6.78033C13.9995 6.57081 14.1172 6.28665 14.1172 5.99036V3.55286C14.1172 3.25656 13.9995 2.9724 13.79 2.76289C13.5805 2.55337 13.2963 2.43567 13 2.43567C12.7037 2.43567 12.4195 2.55337 12.21 2.76289C12.0005 2.9724 11.8828 3.25656 11.8828 3.55286V5.99036C11.8828 6.28665 12.0005 6.57081 12.21 6.78033ZM18.1249 9.29888C18.3085 9.42161 18.5245 9.48713 18.7454 9.48715C18.8921 9.48733 19.0373 9.45853 19.1728 9.40241C19.3083 9.34629 19.4314 9.26395 19.535 9.16012L21.2586 7.43661C21.4635 7.22618 21.5773 6.94349 21.5754 6.64975C21.5735 6.35601 21.4559 6.07485 21.2482 5.86714C21.0405 5.65943 20.7593 5.54188 20.4656 5.53994C20.1719 5.53801 19.8892 5.65184 19.6787 5.8568L17.9552 7.58032C17.7991 7.73659 17.6928 7.93564 17.6497 8.15232C17.6067 8.36899 17.6289 8.59356 17.7134 8.79764C17.798 9.00172 17.9412 9.17615 18.1249 9.29888ZM21.125 15.2325H23.5625C23.8588 15.2325 24.143 15.1148 24.3525 14.9053C24.562 14.6958 24.6797 14.4117 24.6797 14.1154C24.6797 13.8191 24.562 13.5349 24.3525 13.3254C24.143 13.1159 23.8588 12.9982 23.5625 12.9982H21.125C20.8287 12.9982 20.5445 13.1159 20.335 13.3254C20.1255 13.5349 20.0078 13.8191 20.0078 14.1154C20.0078 14.4117 20.1255 14.6958 20.335 14.9053C20.5445 15.1148 20.8287 15.2325 21.125 15.2325ZM2.4375 15.2325H4.875C5.1713 15.2325 5.45546 15.1148 5.66497 14.9053C5.87448 14.6958 5.99219 14.4117 5.99219 14.1154C5.99219 13.8191 5.87448 13.5349 5.66497 13.3254C5.45546 13.1159 5.1713 12.9982 4.875 12.9982H2.4375C2.1412 12.9982 1.85704 13.1159 1.64753 13.3254C1.43802 13.5349 1.32031 13.8191 1.32031 14.1154C1.32031 14.4117 1.43802 14.6958 1.64753 14.9053C1.85704 15.1148 2.1412 15.2325 2.4375 15.2325ZM6.8271 9.40256C6.96262 9.45869 7.10792 9.48744 7.25461 9.48715C7.47552 9.48713 7.69146 9.42161 7.87514 9.29888C8.05882 9.17615 8.20199 9.00172 8.28656 8.79764C8.37113 8.59356 8.39329 8.36899 8.35025 8.15232C8.30722 7.93564 8.20091 7.73659 8.04477 7.58032L6.32125 5.8568C6.11082 5.65184 5.82814 5.53801 5.53439 5.53994C5.24065 5.54188 4.95949 5.65943 4.75178 5.86714C4.54407 6.07485 4.42652 6.35601 4.42459 6.64975C4.42265 6.94349 4.53649 7.22618 4.74145 7.43661L6.46496 9.16012C6.56849 9.26404 6.69157 9.34644 6.8271 9.40256ZM7.95932 15.3073C7.78914 14.5876 7.77431 13.8365 7.91984 13.1048C8.1197 12.1001 8.61302 11.1772 9.33741 10.4528C10.0618 9.72837 10.9847 9.23505 11.9895 9.0352C12.9943 8.83534 14.0357 8.93791 14.9822 9.32995C15.9286 9.72199 16.7376 10.3859 17.3068 11.2377C17.8759 12.0895 18.1797 13.0909 18.1797 14.1154C18.1792 14.5201 18.1314 14.9198 18.0394 15.3073H7.95932Z" fill="#000"/>
<path d="M2.4823 19.4359L23.5469 19.4359C23.8432 19.4359 24.1273 19.3182 24.3368 19.1087C24.5463 18.8992 24.664 18.615 24.664 18.3187C24.664 18.0224 24.5463 17.7383 24.3368 17.5288C24.1273 17.3192 23.8432 17.2015 23.5469 17.2015L2.4823 17.2015C2.186 17.2015 1.90184 17.3192 1.69233 17.5288C1.48282 17.7383 1.36511 18.0224 1.36511 18.3187C1.36511 18.615 1.48282 18.8992 1.69233 19.1087C1.90184 19.3182 2.186 19.4359 2.4823 19.4359Z" fill="#000"/>
<path d="M5.55383 23.5643L20.4806 23.5643C20.7769 23.5643 21.0611 23.4466 21.2706 23.2371C21.4801 23.0275 21.5978 22.7434 21.5978 22.4471C21.5978 22.1508 21.4801 21.8666 21.2706 21.6571C21.0611 21.4476 20.7769 21.3299 20.4806 21.3299L5.55383 21.3299C5.25754 21.3299 4.97338 21.4476 4.76386 21.6571C4.55435 21.8666 4.43665 22.1508 4.43665 22.4471C4.43665 22.7434 4.55435 23.0275 4.76386 23.2371C4.97338 23.4466 5.25754 23.5643 5.55383 23.5643Z" fill="#000"/>
</svg>
