<svg width="26" height="26" viewBox="0 0 26 26" fill="none" xmlns="http://www.w3.org/2000/svg">
<path d="M21.4215 1.89769C21.2607 1.77382 21.0734 1.6889 20.8743 1.6496C20.6752 1.61031 20.4697 1.6177 20.2739 1.67121L10.1522 4.39207C9.80096 4.4864 9.49106 4.69476 9.27118 4.98441C9.05131 5.27405 8.93392 5.62855 8.93747 5.99219V17.4687C8.93747 17.811 8.71606 18.1066 8.37329 18.2218L8.3672 18.2244L5.72657 19.1384C4.71653 19.4761 4.06247 20.4141 4.06247 21.5267C4.05877 21.9792 4.16403 22.426 4.36934 22.8293C4.57466 23.2326 4.87401 23.5806 5.24212 23.8438C5.71615 24.1882 6.2868 24.3741 6.87271 24.375C7.17923 24.3745 7.48364 24.3242 7.77407 24.2262L7.79337 24.2196L8.90243 23.8164C9.38353 23.6558 9.80229 23.3486 10.1 22.938C10.3977 22.5274 10.5594 22.0339 10.5625 21.5267V10.7611C10.5625 10.3909 10.8047 10.0902 11.18 9.99578L11.1906 9.99273L20.0586 7.62429C20.0885 7.61656 20.1199 7.61577 20.1502 7.62199C20.1805 7.62821 20.209 7.64127 20.2335 7.66018C20.258 7.67909 20.2778 7.70335 20.2915 7.7311C20.3052 7.75885 20.3124 7.78937 20.3125 7.82031V15.0277C20.3125 15.3705 20.0967 15.6564 19.7483 15.7732L19.7356 15.7777L17.1513 16.6974C16.6488 16.8627 16.2118 17.1836 15.9037 17.6136C15.5956 18.0437 15.4323 18.5607 15.4375 19.0897C15.4329 19.5436 15.5378 19.9919 15.7431 20.3967C15.9484 20.8015 16.2482 21.151 16.6171 21.4155C16.9783 21.6766 17.3971 21.8468 17.838 21.9118C18.2789 21.9767 18.7289 21.9345 19.1501 21.7887L19.1684 21.7826L20.2774 21.3789C20.7585 21.2184 21.1772 20.9113 21.4749 20.5008C21.7726 20.0902 21.9344 19.5968 21.9375 19.0897V2.94531C21.9386 2.74264 21.8925 2.5425 21.803 2.36068C21.7135 2.17887 21.5829 2.02036 21.4215 1.89769Z" fill="#000"/>
</svg>
