<svg width="26" height="26" viewBox="0 0 26 26" fill="none" xmlns="http://www.w3.org/2000/svg">
<path d="M22.293 8.44439C21.3449 6.79044 19.8829 5.86419 17.9476 5.69052C16.9229 5.59911 15.9671 5.86165 15.0414 6.11606C14.3229 6.3136 13.6439 6.49997 13 6.49997C12.3561 6.49997 11.6797 6.3131 10.9657 6.11556C10.0374 5.86165 9.07766 5.59454 8.04934 5.69103C6.20141 5.86419 4.72266 6.8138 3.76797 8.43728C2.88539 9.94091 2.4375 12.0229 2.4375 14.625C2.4375 16.6765 3.19922 19.2202 4.46875 21.4297C5.11977 22.5595 6.85547 25.1875 8.89484 25.1875C10.4574 25.1875 11.2892 24.7081 11.8965 24.3582C12.318 24.1155 12.5724 23.9687 12.998 23.9687C13.4235 23.9687 13.6779 24.1155 14.0994 24.3582C14.7088 24.7081 15.5391 25.1875 17.1031 25.1875C19.143 25.1875 20.8782 22.559 21.5292 21.4297C22.8023 19.2207 23.5605 16.677 23.5605 14.625C23.5625 11.9554 23.1471 9.9338 22.293 8.44439ZM10.9688 17.875C10.2959 17.875 9.75 16.7837 9.75 15.4375C9.75 14.0913 10.2959 13 10.9688 13C11.6416 13 12.1875 14.0913 12.1875 15.4375C12.1875 16.7837 11.6416 17.875 10.9688 17.875ZM15.0312 17.875C14.3584 17.875 13.8125 16.7837 13.8125 15.4375C13.8125 14.0913 14.3584 13 15.0312 13C15.7041 13 16.25 14.0913 16.25 15.4375C16.25 16.7837 15.7041 17.875 15.0312 17.875Z" fill="#000"/>
<path d="M13.4621 5.68396C14.1304 5.59509 15.3847 5.28634 16.4496 4.22197C17.2439 3.42578 17.7451 2.38402 17.8715 1.2665C17.8787 1.20685 17.8726 1.14634 17.8536 1.08933C17.8347 1.03232 17.8033 0.980226 17.7618 0.936804C17.7202 0.893381 17.6696 0.85971 17.6135 0.838218C17.5574 0.816726 17.4972 0.807948 17.4373 0.812516C16.7919 0.860758 15.5706 1.1106 14.4549 2.22677C13.6352 3.03233 13.1209 4.09772 13 5.24064C12.9938 5.30205 13.0016 5.36409 13.0229 5.42203C13.0442 5.47997 13.0784 5.53229 13.1229 5.57503C13.1675 5.61776 13.2212 5.64978 13.28 5.66866C13.3387 5.68753 13.401 5.69277 13.4621 5.68396Z" fill="#000"/>
</svg>
