<svg width="26" height="26" viewBox="0 0 26 26" fill="none" xmlns="http://www.w3.org/2000/svg">
<path d="M22.4362 3.44449C19.4716 2.27145 16.1129 1.625 12.9777 1.625C9.75 1.625 6.38625 2.26129 3.5039 3.41555C2.47304 3.83348 2.29582 4.57031 2.47355 5.11977L2.68023 5.63672C2.72078 5.73795 2.78129 5.82999 2.85817 5.90734C2.93504 5.9847 3.0267 6.04578 3.12768 6.08696C3.22866 6.12814 3.3369 6.14857 3.44594 6.14703C3.55498 6.14549 3.6626 6.12202 3.76238 6.07801C4.31082 5.83629 4.97757 5.54277 5.13347 5.4798C7.36836 4.55203 10.0907 4.0625 13 4.0625C15.9184 4.0625 18.4889 4.53172 20.8589 5.49707C21.0834 5.58848 21.6145 5.82309 22.1878 6.07902C22.2874 6.1235 22.3949 6.14747 22.504 6.14952C22.613 6.15157 22.7213 6.13165 22.8225 6.09094C22.9237 6.05024 23.0156 5.98958 23.0928 5.91259C23.1701 5.8356 23.231 5.74385 23.272 5.64281L23.4609 5.17969L23.4782 5.13398C23.6534 4.61551 23.4853 3.86191 22.4362 3.44449Z" fill="#000"/>
<path d="M20.7787 7.15305C18.4677 6.22223 15.6244 5.6875 12.9777 5.6875C10.307 5.68926 7.65977 6.1867 5.17059 7.15457C5.14367 7.16523 5.06598 7.19926 4.95274 7.25004C4.85483 7.29392 4.76658 7.35675 4.69309 7.43492C4.6196 7.51308 4.56232 7.60503 4.52455 7.70545C4.48678 7.80587 4.46927 7.91277 4.47303 8.02C4.4768 8.12722 4.50176 8.23263 4.54649 8.33016C4.74961 8.77246 5.02484 9.37523 5.33359 10.0511C7.00481 13.7109 10.1162 20.5156 11.5406 23.4609C11.6725 23.7357 11.8797 23.9674 12.138 24.1292C12.3963 24.291 12.6952 24.3762 13 24.375C13.3054 24.3762 13.6047 24.2906 13.8633 24.1283C14.1219 23.9659 14.329 23.7334 14.4605 23.4579L14.4636 23.4513L21.4358 8.34031C21.4819 8.24143 21.5076 8.13424 21.5112 8.02518C21.5149 7.91613 21.4965 7.80747 21.457 7.70572C21.4176 7.60398 21.358 7.51125 21.2819 7.43312C21.2057 7.35498 21.1145 7.29306 21.0138 7.25105C20.8991 7.20281 20.8183 7.1693 20.7853 7.15609L20.7787 7.15305ZM9.85567 11.3714C9.52595 11.3929 9.19752 11.3134 8.91416 11.1435C8.6308 10.9736 8.40598 10.7213 8.26966 10.4203C8.13335 10.1193 8.09203 9.78392 8.1512 9.45885C8.21038 9.13378 8.36724 8.83448 8.60088 8.60084C8.83452 8.3672 9.13382 8.21034 9.45889 8.15116C9.78396 8.09199 10.1193 8.13331 10.4203 8.26962C10.7213 8.40594 10.9736 8.63076 11.1435 8.91412C11.3135 9.19748 11.393 9.52591 11.3715 9.85562C11.3458 10.2492 11.1779 10.62 10.899 10.8989C10.6201 11.1778 10.2493 11.3458 9.85567 11.3714ZM13.1057 17.8714C12.776 17.8929 12.4475 17.8134 12.1642 17.6435C11.8808 17.4735 11.656 17.2213 11.5197 16.9203C11.3834 16.6193 11.342 16.2839 11.4012 15.9589C11.4604 15.6338 11.6172 15.3345 11.8509 15.1008C12.0845 14.8672 12.3838 14.7103 12.7089 14.6512C13.034 14.592 13.3693 14.6333 13.6703 14.7696C13.9713 14.9059 14.2236 15.1308 14.3935 15.4141C14.5635 15.6975 14.643 16.0259 14.6215 16.3556C14.5958 16.7492 14.4279 17.12 14.149 17.3989C13.8701 17.6778 13.4993 17.8458 13.1057 17.8714ZM16.3557 12.1839C16.026 12.2054 15.6975 12.1259 15.4142 11.956C15.1308 11.7861 14.906 11.5338 14.7697 11.2328C14.6334 10.9318 14.592 10.5964 14.6512 10.2714C14.7104 9.94628 14.8672 9.64698 15.1009 9.41334C15.3345 9.1797 15.6338 9.02284 15.9589 8.96366C16.284 8.90449 16.6193 8.94581 16.9203 9.08212C17.2213 9.21844 17.4736 9.44326 17.6435 9.72662C17.8135 10.01 17.893 10.3384 17.8715 10.6681C17.8458 11.0617 17.6779 11.4325 17.399 11.7114C17.1201 11.9903 16.7493 12.1583 16.3557 12.1839Z" fill="#000"/>
</svg>
