<svg width="26" height="26" viewBox="0 0 26 26" fill="none" xmlns="http://www.w3.org/2000/svg">
<path d="M13 15.4375C14.3462 15.4375 15.4375 14.3462 15.4375 13C15.4375 11.6538 14.3462 10.5625 13 10.5625C11.6538 10.5625 10.5625 11.6538 10.5625 13C10.5625 14.3462 11.6538 15.4375 13 15.4375Z" fill="#000"/>
<path d="M23.887 15.2344L23.8632 15.2151L22.2605 13.9582C22.159 13.878 22.078 13.7747 22.0242 13.6571C21.9703 13.5394 21.9451 13.4106 21.9507 13.2813V12.6943C21.9456 12.5658 21.9711 12.438 22.0251 12.3213C22.079 12.2046 22.1599 12.1023 22.261 12.023L23.8632 10.7656L23.887 10.7463C24.1341 10.5405 24.2999 10.2535 24.3548 9.93661C24.4097 9.61973 24.3501 9.29367 24.1866 9.01672L22.0178 5.26398C22.0153 5.26044 22.0131 5.25671 22.0112 5.25281C21.8468 4.97969 21.592 4.77275 21.291 4.66793C20.99 4.5631 20.6617 4.56702 20.3633 4.67898L20.3455 4.68559L18.4615 5.44375C18.3426 5.49183 18.214 5.51096 18.0863 5.49957C17.9585 5.48818 17.8353 5.4466 17.7267 5.37824C17.5602 5.27329 17.3909 5.1741 17.2189 5.08066C17.1074 5.0202 17.0117 4.93437 16.9394 4.83011C16.8672 4.72585 16.8205 4.60607 16.803 4.48043L16.5192 2.47L16.5131 2.43344C16.4513 2.12205 16.2842 1.84142 16.0399 1.63871C15.7955 1.436 15.4889 1.32357 15.1714 1.32031H10.8286C10.5067 1.32134 10.1955 1.43595 9.94976 1.64394C9.70405 1.85194 9.53962 2.13997 9.48545 2.4573L9.48088 2.48574L9.19803 4.50023C9.18068 4.62551 9.13432 4.74501 9.06265 4.84922C8.99098 4.95342 8.89597 5.03945 8.78518 5.10047C8.6127 5.19337 8.44334 5.29194 8.27737 5.39602C8.16903 5.46395 8.04613 5.50522 7.91874 5.51643C7.79136 5.52764 7.66313 5.50848 7.5446 5.46051L5.65909 4.69879L5.64131 4.69168C5.34245 4.57959 5.01374 4.57583 4.71238 4.68104C4.41103 4.78626 4.1561 4.99379 3.99194 5.26754L3.98534 5.27871L1.81342 9.03398C1.64972 9.31122 1.58997 9.63764 1.64486 9.95489C1.69975 10.2721 1.8657 10.5595 2.11303 10.7656L2.1369 10.7849L3.73956 12.0418C3.84105 12.122 3.92204 12.2253 3.97589 12.3429C4.02974 12.4606 4.05491 12.5894 4.04932 12.7187V13.3057C4.05441 13.4342 4.02893 13.562 3.975 13.6787C3.92106 13.7954 3.84019 13.8977 3.73905 13.977L2.1369 15.2344L2.11303 15.2537C1.86594 15.4595 1.70013 15.7465 1.64524 16.0634C1.59035 16.3803 1.64996 16.7063 1.81342 16.9833L3.98229 20.736C3.98479 20.7396 3.98699 20.7433 3.98889 20.7472C4.15323 21.0203 4.40804 21.2272 4.70906 21.3321C5.01008 21.4369 5.33831 21.433 5.63674 21.321L5.65452 21.3144L7.53698 20.5562C7.65589 20.5082 7.78452 20.489 7.91228 20.5004C8.04003 20.5118 8.16325 20.5534 8.27178 20.6218C8.43835 20.727 8.60762 20.8262 8.7796 20.9193C8.8911 20.9798 8.98683 21.0656 9.05908 21.1699C9.13132 21.2742 9.17805 21.3939 9.19549 21.5196L9.47784 23.53L9.48393 23.5666C9.54584 23.8785 9.71338 24.1595 9.95833 24.3622C10.2033 24.565 10.5106 24.6771 10.8286 24.6797H15.1714C15.4934 24.6787 15.8046 24.564 16.0503 24.3561C16.296 24.1481 16.4604 23.86 16.5146 23.5427L16.5192 23.5143L16.802 21.4998C16.8196 21.3743 16.8664 21.2546 16.9385 21.1504C17.0106 21.0462 17.1062 20.9602 17.2174 20.8995C17.3911 20.8061 17.5607 20.7071 17.7252 20.604C17.8336 20.536 17.9565 20.4948 18.0838 20.4836C18.2112 20.4724 18.3395 20.4915 18.458 20.5395L20.3435 21.2987L20.3613 21.3058C20.6601 21.4181 20.9889 21.4219 21.2903 21.3167C21.5917 21.2115 21.8466 21.0038 22.0107 20.7299C22.0127 20.7261 22.0149 20.7224 22.0173 20.7188L24.1861 16.9665C24.3501 16.6893 24.4101 16.3628 24.3553 16.0454C24.3005 15.728 24.1345 15.4405 23.887 15.2344ZM17.058 13.1909C17.021 13.9773 16.7563 14.736 16.2961 15.3748C15.8359 16.0135 15.2001 16.5048 14.4659 16.7889C13.7317 17.073 12.9307 17.1376 12.1605 16.9749C11.3902 16.8122 10.6838 16.4293 10.1271 15.8726C9.57051 15.3159 9.18761 14.6094 9.02502 13.8391C8.86243 13.0688 8.92716 12.2679 9.21132 11.5337C9.49549 10.7995 9.98685 10.1637 10.6257 9.70364C11.2645 9.24354 12.0232 8.97896 12.8096 8.94207C13.3742 8.91721 13.9377 9.01011 14.4644 9.21485C14.9912 9.41958 15.4695 9.73168 15.8691 10.1313C16.2687 10.5309 16.5807 11.0093 16.7854 11.5361C16.9901 12.0628 17.0829 12.6264 17.058 13.1909Z" fill="#000"/>
</svg>
