<svg width="26" height="27" viewBox="0 0 26 27" fill="none" xmlns="http://www.w3.org/2000/svg">
<path d="M20.0078 24.4749C19.8367 24.4755 19.6699 24.422 19.5309 24.3219L12.9999 19.5677L6.46896 24.3219C6.32943 24.4235 6.16133 24.478 5.98897 24.4773C5.8166 24.4767 5.6489 24.421 5.51011 24.3184C5.37132 24.2158 5.26863 24.0715 5.21689 23.9064C5.16515 23.7413 5.16704 23.564 5.22228 23.4L7.76947 15.8245L1.16791 11.2788C1.02491 11.1805 0.916991 11.0388 0.859906 10.8745C0.802821 10.7101 0.799567 10.5318 0.85062 10.3655C0.901672 10.1992 1.00436 10.0536 1.14367 9.95004C1.28298 9.84649 1.45161 9.79039 1.62494 9.78994H9.76924L12.227 2.19507C12.28 2.0311 12.3833 1.88818 12.5222 1.78682C12.661 1.68546 12.8283 1.63086 12.9999 1.63086C13.1716 1.63086 13.3389 1.68546 13.4777 1.78682C13.6166 1.88818 13.7199 2.0311 13.7728 2.19507L16.2306 9.79249H24.3749C24.5485 9.7924 24.7175 9.84811 24.8572 9.95146C24.9969 10.0548 25.1 10.2004 25.1514 10.3668C25.2028 10.5332 25.1997 10.7118 25.1427 10.8764C25.0857 11.041 24.9777 11.1829 24.8345 11.2814L18.2304 15.8245L20.7761 23.398C20.8173 23.5206 20.8289 23.6513 20.8099 23.7793C20.7909 23.9073 20.7419 24.029 20.6668 24.1342C20.5917 24.2394 20.4928 24.3251 20.3782 24.3844C20.2636 24.4436 20.1366 24.4746 20.0078 24.4749Z" fill="#000"/>
</svg>
