<svg width="26" height="26" viewBox="0 0 26 26" fill="none" xmlns="http://www.w3.org/2000/svg">
<path d="M5.28125 25.1875H3.65625C3.33302 25.1875 3.02302 25.0591 2.79446 24.8305C2.5659 24.602 2.4375 24.292 2.4375 23.9688V16.6562C2.4375 16.333 2.5659 16.023 2.79446 15.7945C3.02302 15.5659 3.33302 15.4375 3.65625 15.4375H5.28125C5.60448 15.4375 5.91448 15.5659 6.14304 15.7945C6.3716 16.023 6.5 16.333 6.5 16.6562V23.9688C6.5 24.292 6.3716 24.602 6.14304 24.8305C5.91448 25.0591 5.60448 25.1875 5.28125 25.1875ZM16.6562 25.1875H15.0312C14.708 25.1875 14.398 25.0591 14.1695 24.8305C13.9409 24.602 13.8125 24.292 13.8125 23.9688V11.7812C13.8125 11.458 13.9409 11.148 14.1695 10.9195C14.398 10.6909 14.708 10.5625 15.0312 10.5625H16.6562C16.9795 10.5625 17.2895 10.6909 17.518 10.9195C17.7466 11.148 17.875 11.458 17.875 11.7812V23.9688C17.875 24.292 17.7466 24.602 17.518 24.8305C17.2895 25.0591 16.9795 25.1875 16.6562 25.1875ZM22.3438 25.1875H20.7188C20.3955 25.1875 20.0855 25.0591 19.857 24.8305C19.6284 24.602 19.5 24.292 19.5 23.9688V6.09375C19.5 5.77052 19.6284 5.46052 19.857 5.23196C20.0855 5.0034 20.3955 4.875 20.7188 4.875H22.3438C22.667 4.875 22.977 5.0034 23.2055 5.23196C23.4341 5.46052 23.5625 5.77052 23.5625 6.09375V23.9688C23.5625 24.292 23.4341 24.602 23.2055 24.8305C22.977 25.0591 22.667 25.1875 22.3438 25.1875ZM10.9688 25.1875H9.34375C9.02052 25.1875 8.71052 25.0591 8.48196 24.8305C8.2534 24.602 8.125 24.292 8.125 23.9688V2.03125C8.125 1.70802 8.2534 1.39802 8.48196 1.16946C8.71052 0.940904 9.02052 0.8125 9.34375 0.8125H10.9688C11.292 0.8125 11.602 0.940904 11.8305 1.16946C12.0591 1.39802 12.1875 1.70802 12.1875 2.03125V23.9688C12.1875 24.292 12.0591 24.602 11.8305 24.8305C11.602 25.0591 11.292 25.1875 10.9688 25.1875Z" fill="black"/>
</svg>
