<svg width="26" height="26" viewBox="0 0 26 26" fill="none" xmlns="http://www.w3.org/2000/svg">
<path d="M13 5.99219C12.7037 5.99219 12.4195 5.87448 12.21 5.66497C12.0005 5.45546 11.8828 5.1713 11.8828 4.875V2.4375C11.8828 2.1412 12.0005 1.85704 12.21 1.64753C12.4195 1.43802 12.7037 1.32031 13 1.32031C13.2963 1.32031 13.5805 1.43802 13.79 1.64753C13.9995 1.85704 14.1172 2.1412 14.1172 2.4375V4.875C14.1172 5.1713 13.9995 5.45546 13.79 5.66497C13.5805 5.87448 13.2963 5.99219 13 5.99219ZM13 24.6797C12.7037 24.6797 12.4195 24.562 12.21 24.3525C12.0005 24.143 11.8828 23.8588 11.8828 23.5625V21.125C11.8828 20.8287 12.0005 20.5445 12.21 20.335C12.4195 20.1255 12.7037 20.0078 13 20.0078C13.2963 20.0078 13.5805 20.1255 13.79 20.335C13.9995 20.5445 14.1172 20.8287 14.1172 21.125V23.5625C14.1172 23.8588 13.9995 24.143 13.79 24.3525C13.5805 24.562 13.2963 24.6797 13 24.6797ZM18.7454 8.3718C18.5245 8.37177 18.3085 8.30625 18.1249 8.18352C17.9412 8.06079 17.798 7.88637 17.7134 7.68229C17.6289 7.47821 17.6067 7.25363 17.6497 7.03696C17.6928 6.82028 17.7991 6.62123 17.9552 6.46496L19.6787 4.74145C19.8892 4.53649 20.1719 4.42265 20.4656 4.42459C20.7593 4.42652 21.0405 4.54407 21.2482 4.75178C21.4559 4.95949 21.5735 5.24065 21.5754 5.53439C21.5773 5.82814 21.4635 6.11082 21.2586 6.32125L19.535 8.04477C19.4314 8.14859 19.3083 8.23093 19.1728 8.28705C19.0373 8.34317 18.8921 8.37197 18.7454 8.3718ZM5.53109 21.5861C5.31012 21.5861 5.09413 21.5205 4.91041 21.3977C4.7267 21.2749 4.58353 21.1004 4.49901 20.8962C4.41448 20.6921 4.3924 20.4674 4.43555 20.2507C4.47871 20.034 4.58516 19.835 4.74145 19.6787L6.46496 17.9552C6.56819 17.8492 6.69144 17.7648 6.82756 17.7069C6.96369 17.6489 7.10996 17.6185 7.25791 17.6176C7.40586 17.6166 7.55252 17.645 7.6894 17.7012C7.82627 17.7574 7.95062 17.8401 8.05524 17.9448C8.15985 18.0494 8.24265 18.1737 8.29882 18.3106C8.35498 18.4475 8.3834 18.5941 8.38243 18.7421C8.38146 18.89 8.35111 19.0363 8.29314 19.1724C8.23518 19.3086 8.15075 19.4318 8.04477 19.535L6.32125 21.2586C6.21761 21.3625 6.09446 21.445 5.95886 21.5012C5.82326 21.5574 5.67788 21.5862 5.53109 21.5861ZM23.5625 14.1172H21.125C20.8287 14.1172 20.5445 13.9995 20.335 13.79C20.1255 13.5805 20.0078 13.2963 20.0078 13C20.0078 12.7037 20.1255 12.4195 20.335 12.21C20.5445 12.0005 20.8287 11.8828 21.125 11.8828H23.5625C23.8588 11.8828 24.143 12.0005 24.3525 12.21C24.562 12.4195 24.6797 12.7037 24.6797 13C24.6797 13.2963 24.562 13.5805 24.3525 13.79C24.143 13.9995 23.8588 14.1172 23.5625 14.1172ZM4.875 14.1172H2.4375C2.1412 14.1172 1.85704 13.9995 1.64753 13.79C1.43802 13.5805 1.32031 13.2963 1.32031 13C1.32031 12.7037 1.43802 12.4195 1.64753 12.21C1.85704 12.0005 2.1412 11.8828 2.4375 11.8828H4.875C5.1713 11.8828 5.45546 12.0005 5.66497 12.21C5.87448 12.4195 5.99219 12.7037 5.99219 13C5.99219 13.2963 5.87448 13.5805 5.66497 13.79C5.45546 13.9995 5.1713 14.1172 4.875 14.1172ZM20.4689 21.5861C20.3221 21.5862 20.1767 21.5574 20.0411 21.5012C19.9055 21.445 19.7824 21.3625 19.6787 21.2586L17.9552 19.535C17.7503 19.3246 17.6364 19.0419 17.6384 18.7482C17.6403 18.4544 17.7579 18.1733 17.9656 17.9656C18.1733 17.7579 18.4544 17.6403 18.7482 17.6384C19.0419 17.6364 19.3246 17.7503 19.535 17.9552L21.2586 19.6787C21.4148 19.835 21.5213 20.034 21.5644 20.2507C21.6076 20.4674 21.5855 20.6921 21.501 20.8962C21.4165 21.1004 21.2733 21.2749 21.0896 21.3977C20.9059 21.5205 20.6899 21.5861 20.4689 21.5861ZM7.25461 8.3718C7.10792 8.37208 6.96262 8.34334 6.8271 8.28721C6.69157 8.23108 6.56849 8.14868 6.46496 8.04477L4.74145 6.32125C4.53649 6.11082 4.42265 5.82814 4.42459 5.53439C4.42652 5.24065 4.54407 4.95949 4.75178 4.75178C4.95949 4.54407 5.24065 4.42652 5.53439 4.42459C5.82814 4.42265 6.11082 4.53649 6.32125 4.74145L8.04477 6.46496C8.20091 6.62123 8.30722 6.82028 8.35025 7.03696C8.39329 7.25363 8.37113 7.47821 8.28656 7.68229C8.20199 7.88637 8.05882 8.06079 7.87514 8.18352C7.69146 8.30625 7.47552 8.37177 7.25461 8.3718ZM13 18.1797C11.9756 18.1797 10.9741 17.8759 10.1223 17.3068C9.27052 16.7376 8.60663 15.9286 8.21459 14.9822C7.82255 14.0357 7.71998 12.9943 7.91984 11.9895C8.1197 10.9847 8.61302 10.0618 9.33741 9.33741C10.0618 8.61302 10.9847 8.1197 11.9895 7.91984C12.9943 7.71998 14.0357 7.82255 14.9822 8.21459C15.9286 8.60663 16.7376 9.27052 17.3068 10.1223C17.8759 10.9741 18.1797 11.9756 18.1797 13C18.1781 14.3732 17.6318 15.6898 16.6608 16.6608C15.6898 17.6318 14.3732 18.1781 13 18.1797Z" fill="#000"/>
</svg>
